<?xml version="1.0" encoding="utf-8"?>
<!-- Generator: Adobe Illustrator 25.0.1, SVG Export Plug-In . SVG Version: 6.00 Build 0)  -->
<svg version="1.1" xmlns="http://www.w3.org/2000/svg" xmlns:xlink="http://www.w3.org/1999/xlink" x="0px" y="0px"
	 viewBox="0 0 1920 1080" style="enable-background:new 0 0 1920 1080;" xml:space="preserve">
<style type="text/css">
	.st0{display:none;}
	.st1{display:inline;fill:#093A3E;}
	.st2{display:inline;}
	.st3{fill:#093A3E;}
</style>
<g id="drawing" class="st0">
	<path class="st1" d="M0,895.56c180.37,25.93,578.52,14.81,578.52,14.81c379.63-33.33,537.04-101.85,537.04-101.85
		c151.85-77.78,185.19-146.3,185.19-146.3c85.19-150,225.93-259.26,225.93-259.26c162.96-122.22,312.96-103.7,312.96-103.7
		c57.41,1.85,80.37,38.89,80.37,38.89V1080H0V895.56z"/>
	<path class="st1" d="M0,0v217.78c95.19,177.78,237.78,401.85,237.78,401.85c33.33,42.59,77.78,37.04,77.78,37.04
		c68.52-14.81,120.37-87.04,120.37-87.04c92.59-157.41,96.3-288.89,96.3-288.89C543.33,117.78,524.81,0,524.81,0L0,0z"/>
</g>
<g id="Layer_3">
	<path class="st3" d="M1912.46,0l7.54,1080h-262.58c44.8-232.44-10.34-439.23-10.34-439.23c-48.25-132.69-141.3-206.78-141.3-206.78
		c-124.07-82.71-258.48-227.46-258.48-227.46C1159.42,111.75,1119.78,0,1119.78,0L1912.46,0z"/>
	<path class="st3" d="M0,0v1080h396.04c43.08-101.48,20.68-273.8,20.68-273.8c-20.68-130.96-72.37-258.48-72.37-258.48
		c-60.31-105.12-44.8-239.53-44.8-239.53C316.77,123.81,422.54,0,422.54,0L0,0z"/>
</g>
</svg>
